<?xml version="1.0" encoding="UTF-8" standalone="no"?> <!-- Created with Vectornator for iOS (http://vectornator.io/) --><!DOCTYPE svg PUBLIC "-//W3C//DTD SVG 1.1//EN" "http://www.w3.org/Graphics/SVG/1.1/DTD/svg11.dtd">
<svg style="fill-rule:evenodd;clip-rule:evenodd;stroke-linecap:round;stroke-linejoin:round;" xmlns:vectornator="http://vectornator.io" xmlns:xlink="http://www.w3.org/1999/xlink" xmlns="http://www.w3.org/2000/svg" xml:space="preserve" version="1.1" viewBox="0 0 1024 1024">
<metadata>
<vectornator:setting key="DisplayWhiteBackground" value="0"/>
<vectornator:setting key="RulersVisible" value="1"/>
<vectornator:setting key="SnapToEdges" value="0"/>
<vectornator:setting key="Units" value="Pixels"/>
<vectornator:setting key="DynamicGuides" value="1"/>
<vectornator:setting key="SnapToPoints" value="0"/>
<vectornator:setting key="CMYKEnabledKey" value="0"/>
<vectornator:setting key="SnapToGrid" value="0"/>
<vectornator:setting key="SnapToGuides" value="1"/>
<vectornator:setting key="GridSpacing" value="28.35000038146973"/>
</metadata>
<defs>
<linearGradient y1="44.0144" id="LinearGradient" x1="482.724" y2="44.0144" x2="517.539" gradientUnits="userSpaceOnUse" gradientTransform="matrix(11.1417 0 0 11.1417 -5015.85 -62.4146)">
<stop stop-color="#fd8334" offset="0"/>
<stop stop-color="#e03b42" offset="0.56"/>
<stop stop-color="#d51f48" offset="1"/>
</linearGradient>
<linearGradient y1="33.5862" id="LinearGradient_2" x1="474.536" y2="33.5862" x2="513.453" gradientUnits="userSpaceOnUse" gradientTransform="matrix(11.1417 0 0 11.1417 -5015.85 -62.4146)">
<stop stop-color="#fd8334" offset="0"/>
<stop stop-color="#e03b42" offset="0.56"/>
<stop stop-color="#d51f48" offset="1"/>
</linearGradient>
<linearGradient y1="29.7802" id="LinearGradient_3" x1="477.185" y2="29.7802" x2="509.863" gradientUnits="userSpaceOnUse" gradientTransform="matrix(11.1417 0 0 11.1417 -5015.85 -62.4146)">
<stop stop-color="#fd8334" offset="0"/>
<stop stop-color="#e03b42" offset="0.56"/>
<stop stop-color="#d51f48" offset="1"/>
</linearGradient>
<linearGradient y1="94.9843" id="LinearGradient_4" x1="46.1563" y2="94.9843" x2="116.298" gradientUnits="userSpaceOnUse" gradientTransform="matrix(11.1417 0 0 11.1417 -355.824 -343.022)">
<stop stop-color="#fd8334" offset="0"/>
<stop stop-color="#e03b42" offset="0.56"/>
<stop stop-color="#d51f48" offset="1"/>
</linearGradient>
<linearGradient y1="94.9843" id="LinearGradient_5" x1="46.1563" y2="94.9843" x2="116.298" gradientUnits="userSpaceOnUse" gradientTransform="matrix(11.1417 0 0 11.1417 -355.824 -343.022)">
<stop stop-color="#fd8334" offset="0"/>
<stop stop-color="#e03b42" offset="0.56"/>
<stop stop-color="#d51f48" offset="1"/>
</linearGradient>
<linearGradient y1="94.9843" id="LinearGradient_6" x1="46.1563" y2="94.9843" x2="116.298" gradientUnits="userSpaceOnUse" gradientTransform="matrix(11.1417 0 0 11.1417 -355.824 -343.022)">
<stop stop-color="#fd8334" offset="0"/>
<stop stop-color="#e03b42" offset="0.56"/>
<stop stop-color="#d51f48" offset="1"/>
</linearGradient>
<linearGradient y1="94.9843" id="LinearGradient_7" x1="46.1563" y2="94.9843" x2="116.298" gradientUnits="userSpaceOnUse" gradientTransform="matrix(11.1417 0 0 11.1417 -355.824 -343.022)">
<stop stop-color="#fd8334" offset="0"/>
<stop stop-color="#e03b42" offset="0.56"/>
<stop stop-color="#d51f48" offset="1"/>
</linearGradient>
<linearGradient y1="94.9843" id="LinearGradient_8" x1="46.1563" y2="94.9843" x2="116.298" gradientUnits="userSpaceOnUse" gradientTransform="matrix(11.1417 0 0 11.1417 -355.824 -343.022)">
<stop stop-color="#fd8334" offset="0"/>
<stop stop-color="#e03b42" offset="0.56"/>
<stop stop-color="#d51f48" offset="1"/>
</linearGradient>
<linearGradient y1="94.9843" id="LinearGradient_9" x1="46.1563" y2="94.9843" x2="116.298" gradientUnits="userSpaceOnUse" gradientTransform="matrix(11.1417 0 0 11.1417 -355.824 -343.022)">
<stop stop-color="#fd8334" offset="0"/>
<stop stop-color="#e03b42" offset="0.56"/>
<stop stop-color="#d51f48" offset="1"/>
</linearGradient>
<linearGradient y1="94.9843" id="LinearGradient_10" x1="46.1563" y2="94.9843" x2="116.298" gradientUnits="userSpaceOnUse" gradientTransform="matrix(11.1417 0 0 11.1417 -355.824 -343.022)">
<stop stop-color="#fd8334" offset="0"/>
<stop stop-color="#e03b42" offset="0.56"/>
<stop stop-color="#d51f48" offset="1"/>
</linearGradient>
<linearGradient y1="94.9843" id="LinearGradient_11" x1="44.7698" y2="94.9843" x2="116.944" gradientUnits="userSpaceOnUse" gradientTransform="matrix(11.1417 0 0 11.1417 -389.21 -182.748)">
<stop stop-color="#fd8334" offset="0"/>
<stop stop-color="#e03b42" offset="0.56"/>
<stop stop-color="#d51f48" offset="1"/>
</linearGradient>
<linearGradient y1="94.9843" id="LinearGradient_12" x1="44.7698" y2="94.9843" x2="116.944" gradientUnits="userSpaceOnUse" gradientTransform="matrix(11.1417 0 0 11.1417 -389.21 -182.748)">
<stop stop-color="#fd8334" offset="0"/>
<stop stop-color="#e03b42" offset="0.56"/>
<stop stop-color="#d51f48" offset="1"/>
</linearGradient>
<linearGradient y1="94.9843" id="LinearGradient_13" x1="44.7698" y2="94.9843" x2="116.944" gradientUnits="userSpaceOnUse" gradientTransform="matrix(11.1417 0 0 11.1417 -389.21 -182.748)">
<stop stop-color="#fd8334" offset="0"/>
<stop stop-color="#e03b42" offset="0.56"/>
<stop stop-color="#d51f48" offset="1"/>
</linearGradient>
<linearGradient y1="94.9843" id="LinearGradient_14" x1="44.7698" y2="94.9843" x2="116.944" gradientUnits="userSpaceOnUse" gradientTransform="matrix(11.1417 0 0 11.1417 -389.21 -182.748)">
<stop stop-color="#fd8334" offset="0"/>
<stop stop-color="#e03b42" offset="0.56"/>
<stop stop-color="#d51f48" offset="1"/>
</linearGradient>
<linearGradient y1="94.9843" id="LinearGradient_15" x1="44.7698" y2="94.9843" x2="116.944" gradientUnits="userSpaceOnUse" gradientTransform="matrix(11.1417 0 0 11.1417 -389.21 -182.748)">
<stop stop-color="#fd8334" offset="0"/>
<stop stop-color="#e03b42" offset="0.56"/>
<stop stop-color="#d51f48" offset="1"/>
</linearGradient>
</defs>
<g id="Layer 1" vectornator:layerName="Layer 1">
<g opacity="1">
<g opacity="1">
<path stroke="#ffffff" stroke-width="8" d="M704.708+280.87L677.909+299.727L573.877+350.263L474.683+361.766L451.287+288.268L363.578+563.725C360.25+573.98+365.085+578.067+374.372+572.776L455.514+526.576C463.409+522.079+468.753+510.977+467.611+501.874L472.822+399.48L591.929+355.543L677.909+340.835C677.835+341.002+677.901+341.231+677.909+341.212L743.604+362.52C750.007+364.598+752.261+361.393+748.815+355.543L704.708+280.87Z" fill="url(#LinearGradient)" stroke-linecap="butt" opacity="1" stroke-linejoin="round"/>
<path stroke="#ffffff" stroke-width="8" d="M277.039+145.099C268.895+144.939+269.205+151.087+279.273+161.505L438.747+327.909L451.012+289.291L550.055+337.629L468.593+478.491L626.917+424.937C630.158+423.873+634.252+420.713+636.036+417.771L665.068+369.875L704.895+280.492L607.19+280.492L558.058+329.332L474.683+210.156L287.834+147.362C283.281+145.832+279.754+145.152+277.039+145.099Z" fill="url(#LinearGradient_2)" stroke-linecap="butt" opacity="1" stroke-linejoin="round"/>
<path stroke="#ffffff" stroke-width="8" d="M308.696+60.5549C299.752+62.0545+298.039+70.2219+305.532+82.0519L446.041+303.81L468.487+478.491L664.9+370.187L509.633+114.193C506.889+109.668+500.531+105+495.433+103.766L320.048+61.3092C315.551+60.2182+311.677+60.0551+308.696+60.5549Z" fill="url(#LinearGradient_3)" stroke-linecap="butt" opacity="1" stroke-linejoin="round"/>
</g>
<g opacity="1">
<g opacity="1">
<path d="M185.323+699.232L185.323+736.971C185.323+741.605+186.217+745.081+188.005+747.398C189.792+749.716+193.003+750.874+197.638+750.874C199.227+750.874+200.915+750.742+202.703+750.477C204.49+750.212+205.98+749.815+207.172+749.285L207.569+773.12C205.318+773.915+202.471+774.61+199.028+775.206C195.585+775.802+192.143+776.1+188.7+776.1C182.079+776.1+176.518+775.272+172.015+773.617C167.513+771.962+163.905+769.578+161.191+766.466C158.476+763.355+156.523+759.647+155.331+755.343C154.139+751.04+153.544+746.24+153.544+740.943L153.544+699.232L137.654+699.232L137.654+674.802L153.345+674.802L153.345+648.782L185.323+648.782L185.323+674.802L208.562+674.802L208.562+699.232L185.323+699.232Z" opacity="1" fill="url(#LinearGradient_4)"/>
<path d="M287.47+712.937C287.47+707.773+285.848+703.337+282.604+699.629C279.359+695.922+274.493+694.068+268.005+694.068C264.827+694.068+261.914+694.565+259.265+695.558C256.617+696.551+254.3+697.908+252.314+699.629C250.327+701.351+248.738+703.37+247.547+705.688C246.355+708.005+245.693+710.421+245.56+712.937L287.47+712.937ZM317.462+725.451C317.462+726.775+317.462+728.099+317.462+729.423C317.462+730.747+317.396+732.005+317.263+733.197L245.56+733.197C245.825+735.978+246.653+738.494+248.043+740.745C249.434+742.996+251.221+744.949+253.406+746.604C255.591+748.259+258.041+749.55+260.755+750.477C263.47+751.404+266.283+751.867+269.197+751.867C274.361+751.867+278.731+750.907+282.306+748.987C285.881+747.067+288.794+744.585+291.045+741.539L313.688+755.84C309.054+762.593+302.929+767.79+295.316+771.432C287.702+775.073+278.863+776.894+268.799+776.894C261.384+776.894+254.366+775.735+247.745+773.418C241.124+771.101+235.331+767.724+230.366+763.288C225.4+758.852+221.494+753.39+218.647+746.902C215.8+740.414+214.376+732.998+214.376+724.656C214.376+716.579+215.767+709.263+218.548+702.708C221.328+696.154+225.102+690.592+229.869+686.024C234.636+681.455+240.264+677.913+246.752+675.397C253.24+672.882+260.259+671.624+267.806+671.624C275.089+671.624+281.776+672.848+287.867+675.298C293.958+677.748+299.189+681.29+303.558+685.924C307.928+690.559+311.338+696.187+313.788+702.807C316.237+709.428+317.462+716.976+317.462+725.451Z" opacity="1" fill="url(#LinearGradient_5)"/>
<path d="M333.605+773.716L333.605+623.557L366.576+623.557L366.576+773.716L333.605+773.716Z" opacity="1" fill="url(#LinearGradient_6)"/>
<path d="M456.011+712.937C456.011+707.773+454.389+703.337+451.145+699.629C447.901+695.922+443.034+694.068+436.546+694.068C433.368+694.068+430.455+694.565+427.807+695.558C425.158+696.551+422.841+697.908+420.855+699.629C418.868+701.351+417.279+703.37+416.088+705.688C414.896+708.005+414.234+710.421+414.102+712.937L456.011+712.937ZM486.003+725.451C486.003+726.775+486.003+728.099+486.003+729.423C486.003+730.747+485.937+732.005+485.805+733.197L414.102+733.197C414.366+735.978+415.194+738.494+416.584+740.745C417.975+742.996+419.762+744.949+421.947+746.604C424.132+748.259+426.582+749.55+429.296+750.477C432.011+751.404+434.825+751.867+437.738+751.867C442.902+751.867+447.272+750.907+450.847+748.987C454.422+747.067+457.335+744.585+459.586+741.539L482.229+755.84C477.595+762.593+471.471+767.79+463.857+771.432C456.243+775.073+447.404+776.894+437.34+776.894C429.925+776.894+422.907+775.735+416.286+773.418C409.666+771.101+403.872+767.724+398.907+763.288C393.941+758.852+390.035+753.39+387.188+746.902C384.341+740.414+382.918+732.998+382.918+724.656C382.918+716.579+384.308+709.263+387.089+702.708C389.869+696.154+393.643+690.592+398.41+686.024C403.177+681.455+408.805+677.913+415.293+675.397C421.782+672.882+428.8+671.624+436.347+671.624C443.63+671.624+450.317+672.848+456.408+675.298C462.499+677.748+467.73+681.29+472.1+685.924C476.469+690.559+479.879+696.187+482.329+702.807C484.778+709.428+486.003+716.976+486.003+725.451Z" opacity="1" fill="url(#LinearGradient_7)"/>
<path d="M569.877+706.78C568.023+704.396+565.507+702.476+562.329+701.02C559.151+699.563+555.907+698.835+552.596+698.835C549.153+698.835+546.042+699.53+543.261+700.921C540.48+702.311+538.097+704.165+536.111+706.482C534.124+708.799+532.568+711.481+531.443+714.526C530.317+717.572+529.755+720.816+529.755+724.259C529.755+727.702+530.284+730.946+531.344+733.991C532.403+737.037+533.959+739.718+536.011+742.036C538.064+744.353+540.513+746.174+543.36+747.498C546.207+748.822+549.418+749.484+552.994+749.484C556.304+749.484+559.581+748.855+562.825+747.597C566.07+746.339+568.685+744.518+570.671+742.135L588.746+764.182C584.641+768.155+579.344+771.266+572.856+773.517C566.368+775.769+559.482+776.894+552.199+776.894C544.387+776.894+537.104+775.702+530.35+773.319C523.597+770.935+517.738+767.459+512.772+762.891C507.807+758.323+503.9+752.794+501.053+746.306C498.207+739.818+496.783+732.469+496.783+724.259C496.783+716.181+498.207+708.899+501.053+702.41C503.9+695.922+507.807+690.394+512.772+685.825C517.738+681.257+523.597+677.748+530.35+675.298C537.104+672.848+544.32+671.624+552+671.624C555.576+671.624+559.118+671.955+562.627+672.617C566.136+673.279+569.512+674.173+572.757+675.298C576.001+676.424+578.98+677.814+581.695+679.469C584.409+681.124+586.76+682.945+588.746+684.931L569.877+706.78Z" opacity="1" fill="url(#LinearGradient_8)"/>
<path d="M702.015+723.862C702.015+731.939+700.559+739.255+697.646+745.809C694.733+752.364+690.76+757.926+685.728+762.494C680.696+767.062+674.87+770.604+668.249+773.12C661.629+775.636+654.544+776.894+646.997+776.894C639.581+776.894+632.53+775.636+625.843+773.12C619.156+770.604+613.33+767.062+608.364+762.494C603.399+757.926+599.459+752.364+596.546+745.809C593.633+739.255+592.177+731.939+592.177+723.862C592.177+715.784+593.633+708.501+596.546+702.013C599.459+695.525+603.399+690.029+608.364+685.527C613.33+681.025+619.156+677.582+625.843+675.199C632.53+672.815+639.581+671.624+646.997+671.624C654.544+671.624+661.629+672.815+668.249+675.199C674.87+677.582+680.696+681.025+685.728+685.527C690.76+690.029+694.733+695.525+697.646+702.013C700.559+708.501+702.015+715.784+702.015+723.862ZM670.633+723.862C670.633+720.684+670.103+717.572+669.044+714.526C667.985+711.481+666.462+708.799+664.476+706.482C662.489+704.165+660.04+702.278+657.126+700.821C654.213+699.365+650.837+698.636+646.997+698.636C643.157+698.636+639.78+699.365+636.867+700.821C633.954+702.278+631.537+704.165+629.617+706.482C627.697+708.799+626.241+711.481+625.247+714.526C624.254+717.572+623.758+720.684+623.758+723.862C623.758+727.04+624.254+730.151+625.247+733.197C626.241+736.242+627.73+738.99+629.716+741.44C631.703+743.889+634.152+745.843+637.065+747.299C639.979+748.756+643.355+749.484+647.195+749.484C651.035+749.484+654.412+748.756+657.325+747.299C660.238+745.843+662.688+743.889+664.674+741.44C666.66+738.99+668.15+736.242+669.143+733.197C670.136+730.151+670.633+727.04+670.633+723.862Z" opacity="1" fill="url(#LinearGradient_9)"/>
<path d="M844.483+773.716L844.483+719.69C844.483+716.91+844.284+714.228+843.887+711.646C843.49+709.064+842.761+706.846+841.702+704.992C840.643+703.139+839.219+701.649+837.432+700.523C835.644+699.398+833.294+698.835+830.38+698.835C827.6+698.835+825.183+699.431+823.131+700.623C821.078+701.814+819.357+703.403+817.966+705.39C816.576+707.376+815.55+709.66+814.888+712.242C814.226+714.824+813.895+717.506+813.895+720.286L813.895+773.716L781.32+773.716L781.32+717.307C781.32+711.613+780.195+707.111+777.944+703.801C775.693+700.49+772.117+698.835+767.218+698.835C762.054+698.835+758.048+700.887+755.201+704.992C752.354+709.097+750.931+714.129+750.931+720.088L750.931+773.716L718.158+773.716L718.158+674.802L749.739+674.802L749.739+688.507L750.136+688.507C751.328+686.388+752.818+684.335+754.605+682.349C756.393+680.363+758.545+678.609+761.061+677.086C763.577+675.563+766.39+674.338+769.502+673.411C772.614+672.484+776.024+672.021+779.731+672.021C786.882+672.021+792.94+673.477+797.905+676.391C802.871+679.304+806.744+683.475+809.525+688.904C812.835+683.74+817.073+679.635+822.237+676.589C827.401+673.544+833.691+672.021+841.106+672.021C847.859+672.021+853.52+673.246+858.088+675.695C862.657+678.145+866.331+681.323+869.112+685.229C871.893+689.136+873.912+693.505+875.17+698.338C876.428+703.172+877.057+707.905+877.057+712.54L877.057+773.716L844.483+773.716Z" opacity="1" fill="url(#LinearGradient_10)"/>
</g>
<g opacity="1">
<path d="M234.501+880.362C234.104+871.623+231.29+864.373+226.06+858.613C220.829+852.853+213.381+849.973+203.715+849.973C199.212+849.973+195.041+850.8+191.201+852.455C187.361+854.111+183.985+856.362+181.072+859.209C178.158+862.056+175.841+865.3+174.12+868.941C172.398+872.583+171.405+876.39+171.14+880.362L234.501+880.362ZM248.206+884.732C248.206+885.659+248.206+886.652+248.206+887.711C248.206+888.77+248.14+889.896+248.008+891.088L170.942+891.088C171.074+895.722+172.001+900.092+173.722+904.197C175.444+908.302+177.827+911.877+180.873+914.923C183.918+917.968+187.494+920.385+191.599+922.172C195.703+923.96+200.139+924.854+204.906+924.854C211.924+924.854+217.982+923.232+223.08+919.987C228.178+916.743+232.052+913.002+234.7+908.765L244.83+916.71C239.268+923.728+233.144+928.76+226.457+931.806C219.77+934.851+212.586+936.374+204.906+936.374C198.021+936.374+191.632+935.149+185.739+932.699C179.847+930.25+174.782+926.84+170.544+922.47C166.307+918.1+162.964+912.936+160.514+906.978C158.064+901.019+156.839+894.53+156.839+887.512C156.839+880.494+158.031+874.006+160.415+868.047C162.798+862.089+166.109+856.924+170.346+852.555C174.583+848.185+179.549+844.775+185.243+842.326C190.937+839.876+197.094+838.651+203.715+838.651C210.997+838.651+217.42+839.876+222.981+842.326C228.543+844.775+233.177+848.086+236.885+852.257C240.592+856.428+243.406+861.294+245.326+866.856C247.246+872.417+248.206+878.376+248.206+884.732Z" opacity="1" fill="url(#LinearGradient_11)"/>
<path d="M368.771+852.356L342.552+852.356L342.552+906.58C342.552+910.023+342.884+912.87+343.546+915.121C344.208+917.372+345.168+919.127+346.426+920.385C347.684+921.643+349.173+922.503+350.895+922.967C352.616+923.43+354.47+923.662+356.456+923.662C358.31+923.662+360.263+923.397+362.316+922.867C364.368+922.338+366.321+921.61+368.175+920.683L368.771+932.401C366.387+933.328+363.905+934.023+361.322+934.487C358.74+934.95+355.926+935.182+352.881+935.182C350.365+935.182+347.717+934.851+344.936+934.189C342.155+933.527+339.573+932.269+337.19+930.415C334.806+928.561+332.853+926.045+331.33+922.867C329.807+919.689+329.046+915.518+329.046+910.354L329.046+852.356L309.78+852.356L309.78+841.035L329.046+841.035L329.046+814.816L342.552+814.816L342.552+841.035L368.771+841.035L368.771+852.356Z" opacity="1" fill="url(#LinearGradient_12)"/>
<path d="M507.013+933.99C506.748+931.474+506.549+928.694+506.417+925.648C506.285+922.603+506.218+920.087+506.218+918.1L505.821+918.1C503.173+923.53+498.869+927.932+492.911+931.309C486.952+934.686+480.662+936.374+474.041+936.374C462.256+936.374+453.418+932.865+447.525+925.847C441.633+918.829+438.686+909.56+438.686+898.04L438.686+841.035L452.193+841.035L452.193+892.478C452.193+897.377+452.59+901.813+453.384+905.786C454.179+909.758+455.536+913.168+457.456+916.015C459.376+918.862+461.958+921.08+465.203+922.669C468.447+924.258+472.519+925.052+477.418+925.052C480.993+925.052+484.469+924.324+487.846+922.867C491.222+921.411+494.235+919.193+496.883+916.214C499.531+913.234+501.65+909.46+503.239+904.892C504.828+900.324+505.622+894.928+505.622+888.704L505.622+841.035L519.129+841.035L519.129+913.532C519.129+916.048+519.195+919.292+519.327+923.265C519.46+927.237+519.659+930.812+519.923+933.99L507.013+933.99Z" opacity="1" fill="url(#LinearGradient_13)"/>
<path d="M681.007+918.299C677.035+924.258+671.87+928.76+665.514+931.806C659.158+934.851+652.604+936.374+645.851+936.374C638.568+936.374+631.98+935.116+626.088+932.6C620.195+930.084+615.163+926.641+610.992+922.272C606.821+917.902+603.577+912.738+601.26+906.779C598.942+900.82+597.784+894.398+597.784+887.512C597.784+880.627+598.942+874.205+601.26+868.246C603.577+862.287+606.821+857.123+610.992+852.753C615.163+848.384+620.195+844.941+626.088+842.425C631.98+839.909+638.568+838.651+645.851+838.651C652.604+838.651+659.158+840.207+665.514+843.319C671.87+846.43+677.035+851.032+681.007+857.123L681.404+857.123L681.404+783.831L694.911+783.831L694.911+933.99L681.404+933.99L681.404+918.299L681.007+918.299ZM612.085+887.512C612.085+892.677+612.879+897.543+614.468+902.111C616.057+906.68+618.341+910.652+621.321+914.029C624.3+917.405+627.975+920.054+632.344+921.974C636.714+923.894+641.68+924.854+647.241+924.854C652.405+924.854+657.172+923.894+661.542+921.974C665.912+920.054+669.686+917.438+672.863+914.128C676.041+910.818+678.524+906.878+680.312+902.31C682.099+897.742+682.993+892.809+682.993+887.512C682.993+882.216+682.099+877.283+680.312+872.715C678.524+868.147+676.041+864.174+672.863+860.798C669.686+857.421+665.912+854.773+661.542+852.853C657.172+850.933+652.405+849.973+647.241+849.973C641.68+849.973+636.714+850.966+632.344+852.952C627.975+854.938+624.3+857.62+621.321+860.996C618.341+864.373+616.057+868.345+614.468+872.914C612.879+877.482+612.085+882.348+612.085+887.512Z" opacity="1" fill="url(#LinearGradient_14)"/>
<path d="M851.625+880.362C851.227+871.623+848.414+864.373+843.183+858.613C837.953+852.853+830.504+849.973+820.838+849.973C816.336+849.973+812.165+850.8+808.325+852.455C804.485+854.111+801.108+856.362+798.195+859.209C795.282+862.056+792.965+865.3+791.243+868.941C789.522+872.583+788.529+876.39+788.264+880.362L851.625+880.362ZM865.33+884.732C865.33+885.659+865.33+886.652+865.33+887.711C865.33+888.77+865.264+889.896+865.131+891.088L788.065+891.088C788.198+895.722+789.124+900.092+790.846+904.197C792.567+908.302+794.951+911.877+797.996+914.923C801.042+917.968+804.617+920.385+808.722+922.172C812.827+923.96+817.263+924.854+822.03+924.854C829.048+924.854+835.106+923.232+840.204+919.987C845.302+916.743+849.175+913.002+851.823+908.765L861.953+916.71C856.392+923.728+850.267+928.76+843.58+931.806C836.893+934.851+829.71+936.374+822.03+936.374C815.144+936.374+808.755+935.149+802.863+932.699C796.97+930.25+791.905+926.84+787.668+922.47C783.431+918.1+780.087+912.936+777.637+906.978C775.188+901.019+773.963+894.53+773.963+887.512C773.963+880.494+775.155+874.006+777.538+868.047C779.922+862.089+783.232+856.924+787.469+852.555C791.707+848.185+796.672+844.775+802.366+842.326C808.06+839.876+814.217+838.651+820.838+838.651C828.121+838.651+834.543+839.876+840.105+842.326C845.666+844.775+850.301+848.086+854.008+852.257C857.716+856.428+860.53+861.294+862.45+866.856C864.37+872.417+865.33+878.376+865.33+884.732Z" opacity="1" fill="url(#LinearGradient_15)"/>
</g>
</g>
</g>
</g>
</svg>
